# xmcd CD database file
#
# Track frame offsets:
#	150
#	30220
#	59110
#
# Disc length: 1109 seconds
#
# Revision: 1
# Processed by: cddbd v1.5.1PL0 Copyright (c) Steve Scherf et al.
# Submitted via: CDex 1.51
#
DISCID=1f045303
DTITLE=THE ALFEE - orb (Bonus CD)
DYEAR=1999
DGENRE=Rock
TTITLE0=A.D.1999 (orb version)
TTITLE1=Moonlight Fairy (orb version)
TTITLE2=Decadence (orb version)
EXTD=YEAR: 1999
EXTT0=
EXTT1=
EXTT2=
PLAYORDER=
